<svg xmlns="http://www.w3.org/2000/svg" viewBox="0 0 32 32">
  <title>获奖</title>
  <defs>
    <linearGradient id="maw-a" x1="0" y1="0" x2="0" y2="1">
      <stop offset="0" stop-color="#FFDE73"/>
      <stop offset="1" stop-color="#F7A93B"/>
    </linearGradient>
  </defs>
  <path d="M8.8 6C5.6 6.4 5 9.6 7.4 11.4L8.6 9.8C7.4 8.8 7.6 7.6 8.9 7.4Z" fill="url(#maw-a)"/>
  <path d="M23.2 6C26.4 6.4 27 9.6 24.6 11.4L23.4 9.8C24.6 8.8 24.4 7.6 23.1 7.4Z" fill="url(#maw-a)"/>
  <path d="M8.5 4.5L23.5 4.5C23.5 11 20.8 15.2 16 15.2C11.2 15.2 8.5 11 8.5 4.5Z" fill="url(#maw-a)"/>
  <path d="M16 6.8L16.9 8.9L19.1 9L17.4 10.5L18 12.6L16 11.3L14 12.6L14.6 10.5L12.9 9L15.1 8.9Z" fill="#FFFFFF" opacity="0.9"/>
  <rect x="14.8" y="15.2" width="2.4" height="5" rx="1.2" fill="url(#maw-a)"/>
  <rect x="10" y="20.2" width="12" height="3.4" rx="1.7" fill="url(#maw-a)"/>
</svg>
